<?xml version="1.0" encoding="utf-8"?>
<!-- Generator: Adobe Illustrator 26.4.1, SVG Export Plug-In . SVG Version: 6.00 Build 0)  -->
<svg version="1.1" id="Слой_1" xmlns="http://www.w3.org/2000/svg" xmlns:xlink="http://www.w3.org/1999/xlink" x="0px" y="0px"
	 viewBox="0 0 400.2 80" style="enable-background:new 0 0 400.2 80;" xml:space="preserve">
<style type="text/css">
	.st0{fill-rule:evenodd;clip-rule:evenodd;fill:#FFA800;}
	.st1{fill:#FFA800;}
	.st2{fill:#FFFFFF;}
	.st3{fill-rule:evenodd;clip-rule:evenodd;fill:#FFFFFF;}
	.st4{fill:none;}
	.st5{enable-background:new    ;}
</style>
<g>
	<path class="st0" d="M22.2,15.6c0,0.1,0.2,0.4,0.8,0.8c0.8,0.6,2.2,1.2,4.1,1.8c3.8,1.1,9.1,1.9,15.1,1.9s11.3-0.7,15.1-1.9
		c1.9-0.6,3.3-1.2,4.1-1.8c0.6-0.4,0.8-0.7,0.8-0.8s-0.2-0.4-0.8-0.8c-0.8-0.6-2.2-1.2-4.1-1.8c-3.8-1.1-9.1-1.9-15.1-1.9
		S30.9,11.8,27.1,13c-1.9,0.6-3.3,1.2-4.1,1.8C22.4,15.2,22.3,15.5,22.2,15.6z M25.9,8.7c4.3-1.3,10.1-2,16.4-2s12.1,0.8,16.4,2
		c2.1,0.6,4,1.4,5.4,2.4c1.3,1,2.7,2.4,2.7,4.4s-1.3,3.5-2.7,4.4c-1.4,1-3.3,1.8-5.4,2.4c-4.3,1.3-10.1,2-16.4,2s-12.1-0.8-16.4-2
		c-2.1-0.6-4-1.4-5.4-2.4c-1.3-1-2.7-2.4-2.7-4.4s1.3-3.5,2.7-4.4C21.9,10.2,23.7,9.4,25.9,8.7z"/>
</g>
<path class="st1" d="M51.6,17.1c-2.8,0.4-5.9,0.7-9.4,0.7s-6.6-0.2-9.4-0.7c2.9-1,6.1-1.6,9.4-1.6C45.5,15.6,48.7,16.1,51.6,17.1z"
	/>
<path class="st2" d="M51.6,17.1c-2.8,0.4-5.9,0.7-9.4,0.7s-6.6-0.2-9.4-0.7c2.9-1,6.1-1.6,9.4-1.6C45.5,15.6,48.7,16.1,51.6,17.1z"
	/>
<path class="st0" d="M38,26.6c-1.6-0.1-3.1-0.2-4.5-0.4c-0.7,2.3-1.2,5-1.6,7.9c-3.4,0.5-6.5,1.2-9.1,2c-1.4,0.5-2.8,1-3.9,1.6
	c1.5-5.1,4.5-9.5,8.6-12.6c-0.7-0.2-1.4-0.4-2.1-0.6c-1-0.3-2-0.6-2.9-1c-5.5,5.3-9,12.7-9,21c0,16,12.9,28.9,28.9,28.9
	s28.9-12.9,28.9-28.9c0-8.2-3.5-15.7-9-21c-0.9,0.4-1.9,0.7-2.9,1c-0.7,0.2-1.3,0.4-2.1,0.6c4.1,3.1,7.1,7.5,8.6,12.6
	c-1.2-0.6-2.5-1.2-3.9-1.6c-2.6-0.9-5.7-1.6-9.1-2c-0.4-2.9-0.9-5.5-1.6-7.9c-1.5,0.2-3,0.3-4.5,0.4c0.7,2,1.2,4.4,1.6,7
	c-1.9-0.1-3.9-0.2-5.9-0.2s-4,0.1-5.9,0.2C36.8,30.9,37.3,28.6,38,26.6z M22.7,52.8c-1.4-0.5-2.8-1-3.9-1.6
	c2.3,8.1,8.7,14.4,16.7,16.7c-0.6-1.2-1.2-2.5-1.6-3.9c-0.9-2.6-1.6-5.7-2-9.1C28.4,54.4,25.3,53.7,22.7,52.8z M24.1,48.6
	c2.1,0.7,4.5,1.3,7.3,1.7c-0.1-1.9-0.2-3.9-0.2-5.9s0.1-4,0.2-5.9c-2.7,0.4-5.2,1-7.3,1.7c-2.3,0.8-4,1.6-5,2.5
	c-1.1,0.9-1.2,1.5-1.2,1.7s0.2,0.9,1.2,1.7C20.1,47,21.8,47.9,24.1,48.6z M35.6,44.4c0,2.2,0.1,4.4,0.3,6.4c2,0.2,4.2,0.3,6.4,0.3
	s4.4-0.1,6.4-0.3c0.2-2,0.3-4.2,0.3-6.4S48.9,40,48.7,38c-2-0.2-4.2-0.3-6.4-0.3s-4.4,0.1-6.4,0.3C35.6,40.1,35.6,42.2,35.6,44.4z
	 M38,62.6c-0.7-2.1-1.3-4.5-1.7-7.3c1.9,0.1,3.9,0.2,5.9,0.2s4-0.1,5.9-0.2c-0.4,2.7-1,5.2-1.7,7.3c-0.8,2.3-1.6,4-2.5,5
	c-0.9,1.1-1.5,1.2-1.7,1.2c-0.3,0-0.9-0.2-1.7-1.2S38.8,64.9,38,62.6z M50.6,64c0.9-2.6,1.6-5.7,2-9.1c3.4-0.5,6.5-1.2,9.1-2
	c1.4-0.5,2.8-1,3.9-1.6c-2.2,8-8.6,14.3-16.6,16.6C49.6,66.8,50.1,65.4,50.6,64z M60.4,40.3c-2.1-0.7-4.5-1.3-7.3-1.7
	c0.1,1.9,0.2,3.9,0.2,5.9s-0.1,4-0.2,5.9c2.7-0.4,5.2-1,7.3-1.7c2.3-0.8,4-1.6,5-2.5c1.1-0.9,1.2-1.5,1.2-1.7s-0.2-0.9-1.2-1.7
	C64.3,41.9,62.7,41,60.4,40.3z"/>
<path class="st3" d="M38,26.6c-1.6-0.1-3.1-0.2-4.5-0.4c-0.7,2.3-1.2,5-1.6,7.9c-3.4,0.5-6.5,1.2-9.1,2c-1.4,0.5-2.8,1-3.9,1.6
	c1.5-5.1,4.5-9.5,8.6-12.6c-0.7-0.2-1.4-0.4-2.1-0.6c-1-0.3-2-0.6-2.9-1c-5.5,5.3-9,12.7-9,21c0,16,12.9,28.9,28.9,28.9
	s28.9-12.9,28.9-28.9c0-8.2-3.5-15.7-9-21c-0.9,0.4-1.9,0.7-2.9,1c-0.7,0.2-1.3,0.4-2.1,0.6c4.1,3.1,7.1,7.5,8.6,12.6
	c-1.2-0.6-2.5-1.2-3.9-1.6c-2.6-0.9-5.7-1.6-9.1-2c-0.4-2.9-0.9-5.5-1.6-7.9c-1.5,0.2-3,0.3-4.5,0.4c0.7,2,1.2,4.4,1.6,7
	c-1.9-0.1-3.9-0.2-5.9-0.2s-4,0.1-5.9,0.2C36.8,30.9,37.3,28.6,38,26.6z M22.7,52.8c-1.4-0.5-2.8-1-3.9-1.6
	c2.3,8.1,8.7,14.4,16.7,16.7c-0.6-1.2-1.2-2.5-1.6-3.9c-0.9-2.6-1.6-5.7-2-9.1C28.4,54.4,25.3,53.7,22.7,52.8z M24.1,48.6
	c2.1,0.7,4.5,1.3,7.3,1.7c-0.1-1.9-0.2-3.9-0.2-5.9s0.1-4,0.2-5.9c-2.7,0.4-5.2,1-7.3,1.7c-2.3,0.8-4,1.6-5,2.5
	c-1.1,0.9-1.2,1.5-1.2,1.7s0.2,0.9,1.2,1.7C20.1,47,21.8,47.9,24.1,48.6z M35.6,44.4c0,2.2,0.1,4.4,0.3,6.4c2,0.2,4.2,0.3,6.4,0.3
	s4.4-0.1,6.4-0.3c0.2-2,0.3-4.2,0.3-6.4S48.9,40,48.7,38c-2-0.2-4.2-0.3-6.4-0.3s-4.4,0.1-6.4,0.3C35.6,40.1,35.6,42.2,35.6,44.4z
	 M38,62.6c-0.7-2.1-1.3-4.5-1.7-7.3c1.9,0.1,3.9,0.2,5.9,0.2s4-0.1,5.9-0.2c-0.4,2.7-1,5.2-1.7,7.3c-0.8,2.3-1.6,4-2.5,5
	c-0.9,1.1-1.5,1.2-1.7,1.2c-0.3,0-0.9-0.2-1.7-1.2S38.8,64.9,38,62.6z M50.6,64c0.9-2.6,1.6-5.7,2-9.1c3.4-0.5,6.5-1.2,9.1-2
	c1.4-0.5,2.8-1,3.9-1.6c-2.2,8-8.6,14.3-16.6,16.6C49.6,66.8,50.1,65.4,50.6,64z M60.4,40.3c-2.1-0.7-4.5-1.3-7.3-1.7
	c0.1,1.9,0.2,3.9,0.2,5.9s-0.1,4-0.2,5.9c2.7-0.4,5.2-1,7.3-1.7c2.3-0.8,4-1.6,5-2.5c1.1-0.9,1.2-1.5,1.2-1.7s-0.2-0.9-1.2-1.7
	C64.3,41.9,62.7,41,60.4,40.3z"/>
<path class="st1" d="M243.3,56.9c-2.6,0-4.9-0.6-7-1.8c-2-1.3-3.6-3-4.8-5.1s-1.8-4.5-1.8-7.2s0.6-5.1,1.8-7.2
	c1.2-2.1,2.8-3.8,4.8-5s4.3-1.9,6.9-1.9c2.2,0,4.1,0.4,5.8,1.3s3,2.1,3.9,3.6l-0.9,1.3V18.5h5.6v37.8h-5.4v-5.5l0.7,1
	c-0.9,1.6-2.3,2.9-4,3.8C247.2,56.5,245.3,56.9,243.3,56.9z M243.8,51.7c1.6,0,3-0.4,4.2-1.1c1.3-0.8,2.2-1.8,3-3.2
	c0.7-1.4,1.1-2.9,1.1-4.6s-0.4-3.2-1.1-4.5c-0.7-1.3-1.7-2.4-3-3.2c-1.2-0.8-2.6-1.2-4.2-1.2c-1.6,0-3,0.4-4.2,1.2
	c-1.3,0.8-2.2,1.8-2.9,3.2c-0.7,1.3-1.1,2.8-1.1,4.5s0.4,3.2,1.1,4.6c0.7,1.3,1.7,2.4,2.9,3.2C240.8,51.3,242.2,51.7,243.8,51.7z
	 M277,56.9c-2.7,0-5.1-0.6-7.2-1.8c-2.1-1.3-3.7-3-4.8-5.1c-1.2-2.2-1.8-4.6-1.8-7.2c0-2.7,0.6-5.2,1.8-7.2c1.2-2.1,2.8-3.7,4.8-4.9
	c2-1.2,4.3-1.9,6.8-1.9c2,0,3.9,0.4,5.5,1.1c1.6,0.7,2.9,1.7,4,2.9c1.1,1.2,1.9,2.6,2.5,4.2c0.6,1.6,0.9,3.2,0.9,5
	c0,0.4,0,0.9,0,1.3c0,0.5-0.1,0.9-0.2,1.3h-21.5v-4.7h18.4l-2.7,2.1c0.3-1.6,0.2-3.1-0.4-4.4c-0.5-1.3-1.4-2.3-2.5-3
	c-1.1-0.8-2.4-1.2-3.9-1.2s-2.8,0.4-4,1.2c-1.2,0.7-2.1,1.8-2.7,3.2c-0.6,1.4-0.9,3-0.8,5c-0.2,1.8,0.1,3.4,0.8,4.8
	c0.7,1.4,1.7,2.4,2.9,3.2c1.3,0.8,2.7,1.1,4.3,1.1s3-0.4,4.1-1.1c1.2-0.7,2.1-1.7,2.8-2.8l4.6,2.2c-0.5,1.3-1.4,2.4-2.5,3.4
	c-1.1,1-2.4,1.8-4,2.4C280.5,56.6,278.8,56.9,277,56.9z M302.2,56.3l-10.6-27h6.1l8.2,22h-2.2l8.1-22h6.2l-10.6,27H302.2z
	 M321.9,56.3v-27h5.6v27H321.9z M321.9,25.6v-6.5h5.6v6.5H321.9z M334.2,56.3v-27h5.4v5.3l-0.7-0.7c0.7-1.7,1.7-3,3.2-3.8
	c1.5-0.9,3.2-1.4,5.1-1.4c2,0,3.8,0.4,5.3,1.3s2.7,2.1,3.6,3.6c0.9,1.5,1.3,3.3,1.3,5.3v17.5h-5.6v-16c0-1.4-0.2-2.5-0.8-3.5
	c-0.5-1-1.2-1.7-2.1-2.2c-0.9-0.5-1.9-0.8-3.1-0.8s-2.2,0.3-3.1,0.8c-0.9,0.5-1.6,1.2-2.1,2.2s-0.8,2.1-0.8,3.5v16L334.2,56.3
	L334.2,56.3z M376.2,56.9c-2.7,0-5.1-0.6-7.2-1.8c-2.1-1.3-3.7-3-4.9-5.1c-1.2-2.2-1.8-4.6-1.8-7.2c0-2.7,0.6-5.2,1.8-7.2
	c1.2-2.1,2.8-3.7,4.8-4.9c2-1.2,4.3-1.9,6.8-1.9c2,0,3.9,0.4,5.5,1.1c1.6,0.7,2.9,1.7,4,2.9c1.1,1.2,1.9,2.6,2.5,4.2
	c0.6,1.6,0.9,3.2,0.9,5c0,0.4,0,0.9,0,1.3c0,0.5-0.1,0.9-0.2,1.3h-21.5v-4.7h18.4l-2.7,2.1c0.3-1.6,0.2-3.1-0.4-4.4
	c-0.5-1.3-1.4-2.3-2.5-3c-1.1-0.8-2.4-1.2-3.9-1.2s-2.8,0.4-4,1.2c-1.2,0.7-2.1,1.8-2.7,3.2c-0.6,1.4-0.9,3-0.8,5
	c-0.2,1.8,0.1,3.4,0.8,4.8c0.7,1.4,1.7,2.4,2.9,3.2c1.3,0.8,2.7,1.1,4.3,1.1s3-0.4,4.1-1.1c1.2-0.7,2.1-1.7,2.8-2.8l4.6,2.2
	c-0.5,1.3-1.4,2.4-2.5,3.4c-1.1,1-2.4,1.8-4,2.4C379.7,56.6,378,56.9,376.2,56.9z"/>
<rect x="82.1" y="16.3" class="st4" width="162.8" height="44.5"/>
<g>
	<g class="st5">
		<path class="st2" d="M94.7,48.4c0.8,3.1,3.1,4.8,6.9,4.8c4.1,0,5.7-1.7,5.7-4.2c0-2.6-1.3-3.8-6.7-5.1c-8.7-2.1-10.4-4.8-10.4-8.8
			c0-4.2,3.1-8.4,10.9-8.4c7.9,0,11,4.5,11.3,8.6H107c-0.4-1.8-1.7-4.3-6.1-4.3c-3.9,0-5,1.8-5,3.7c0,2.1,1.2,3.1,6.4,4.3
			c9.1,2.2,10.8,5.2,10.8,9.6c0,5.1-4,9-11.7,9c-7.9,0-11.6-4-12.4-9.2H94.7z"/>
		<path class="st2" d="M122,27.4c3.7,11.7,6.5,20.6,7.4,24.3h0.1c0.7-3.6,3.8-12.4,7.9-24.3h5.8l-10.8,29.5h-6.2l-10.2-29.5H122z"/>
		<path class="st2" d="M151.7,43.2c0,5.6,2.8,9.7,7.7,9.7c4.4,0,5.8-2.2,6.7-4.3h5.7c-1.1,3.7-4.3,9-12.6,9
			c-9.4,0-13.2-7.5-13.2-15.1c0-8.9,4.5-15.8,13.6-15.8c9.6,0,12.8,7.6,12.8,14.1c0,0.9,0,1.6-0.1,2.5H151.7z M166.5,39.4
			c-0.1-4.6-2.3-8.3-7.1-8.3c-4.9,0-7.1,3.4-7.6,8.3H166.5z"/>
		<path class="st2" d="M178.6,35c0-2.5,0-5.2-0.1-7.6h5.5c0.1,0.9,0.2,2.9,0.2,4.3c1.4-2.6,3.9-5,8.5-5c4.2,0,7,2.1,8.1,5.1
			c1.6-2.7,4.4-5.1,9.3-5.1c4.9,0,9.3,2.9,9.3,10.8v19.4h-5.6V38.2c0-3.3-1.2-6.7-5.5-6.7c-4.5,0-6.5,3.4-6.5,8.5v16.9h-5.6V38.4
			c0-3.7-1-6.9-5.4-6.9c-4.5,0-6.6,3.5-6.6,9v16.4h-5.6V35z"/>
	</g>
</g>
</svg>
