<svg width="370" height="80" viewBox="0 0 370 80" fill="none" xmlns="http://www.w3.org/2000/svg">
<g filter="url(#filter0_d_8_29)">
<path fill-rule="evenodd" clip-rule="evenodd" d="M22.2352 15.5556C22.2807 15.6537 22.4484 15.9241 23.032 16.338C23.8804 16.9397 25.2522 17.5726 27.1473 18.1411C30.9094 19.2697 36.2397 20 42.2223 20C48.2048 20 53.5352 19.2697 57.2972 18.1411C59.1924 17.5726 60.5642 16.9397 61.4125 16.338C61.9961 15.9241 62.1639 15.6537 62.2093 15.5556C62.1639 15.4574 61.9961 15.1871 61.4125 14.7732C60.5642 14.1714 59.1924 13.5386 57.2972 12.97C53.5352 11.8414 48.2048 11.1111 42.2223 11.1111C36.2397 11.1111 30.9094 11.8414 27.1473 12.97C25.2522 13.5386 23.8804 14.1714 23.032 14.7732C22.4484 15.1871 22.2807 15.4575 22.2352 15.5556ZM25.8702 8.71303C30.1511 7.42878 35.9318 6.66669 42.2223 6.66669C48.5127 6.66669 54.2935 7.42878 58.5743 8.71303C60.7006 9.35091 62.5832 10.1546 63.9838 11.148C65.3267 12.1005 66.6667 13.5577 66.6667 15.5556C66.6667 17.5534 65.3267 19.0106 63.9838 19.9631C62.5832 20.9566 60.7006 21.7602 58.5743 22.3981C54.2935 23.6824 48.5127 24.4445 42.2223 24.4445C35.9318 24.4445 30.1511 23.6824 25.8702 22.3981C23.744 21.7602 21.8614 20.9566 20.4608 19.9631C19.1179 19.0106 17.7778 17.5534 17.7778 15.5556C17.7778 13.5577 19.1179 12.1005 20.4608 11.148C21.8614 10.1546 23.744 9.35091 25.8702 8.71303Z" fill="#FFA800"/>
</g>
<path d="M51.5962 17.1104C48.8431 17.5295 45.6584 17.7778 42.2223 17.7778C38.7862 17.7778 35.6015 17.5295 32.8483 17.1104C35.7877 16.1026 38.9411 15.5556 42.2223 15.5556C45.5034 15.5556 48.6568 16.1026 51.5962 17.1104Z" fill="#FFA800"/>
<path d="M51.5962 17.1104C48.8431 17.5295 45.6584 17.7778 42.2223 17.7778C38.7862 17.7778 35.6015 17.5295 32.8483 17.1104C35.7877 16.1026 38.9411 15.5556 42.2223 15.5556C45.5034 15.5556 48.6568 16.1026 51.5962 17.1104Z" fill="white"/>
<path fill-rule="evenodd" clip-rule="evenodd" d="M37.9596 26.5513C36.4018 26.4659 34.8863 26.3341 33.4295 26.1589C32.7423 28.4904 32.1886 31.1417 31.7949 34.0172C28.382 34.4845 25.2847 35.1771 22.6634 36.0509C21.2315 36.5282 19.9027 37.0723 18.7242 37.6857C20.1796 32.6167 23.2307 28.2228 27.2991 25.0825C26.5811 24.9099 25.891 24.7244 25.2317 24.5267C24.2342 24.2274 23.2573 23.8853 22.3325 23.493C16.7895 28.7567 13.3334 36.197 13.3334 44.4445C13.3334 60.3994 26.2674 73.3334 42.2223 73.3334C58.1772 73.3334 71.1112 60.3994 71.1112 44.4445C71.1112 36.197 67.655 28.7567 62.1121 23.493C61.1873 23.8853 60.2104 24.2274 59.2129 24.5267C58.5536 24.7244 57.8634 24.9099 57.1454 25.0825C61.2138 28.2228 64.265 32.6167 65.7203 37.6857C64.5418 37.0723 63.213 36.5282 61.7812 36.0509C59.1599 35.1771 56.0626 34.4845 52.6496 34.0172C52.2559 31.1417 51.7022 28.4904 51.015 26.1589C49.5582 26.3341 48.0427 26.4659 46.4849 26.5513C47.1355 28.5607 47.6822 30.9216 48.089 33.5432C46.1925 33.4054 44.2294 33.3334 42.2223 33.3334C40.2151 33.3334 38.2521 33.4054 36.3555 33.5432C36.7623 30.9216 37.309 28.5607 37.9596 26.5513ZM22.6634 52.8381C21.2316 52.3608 19.9027 51.8167 18.7242 51.2033C21.0401 59.2696 27.3971 65.6266 35.4634 67.9425C34.85 66.7641 34.306 65.4352 33.8287 64.0034C32.9549 61.3821 32.2622 58.2848 31.7949 54.8718C28.382 54.4045 25.2847 53.7118 22.6634 52.8381ZM24.0688 48.6217C26.1335 49.3099 28.5854 49.8867 31.3209 50.3113C31.1831 48.4147 31.1112 46.4516 31.1112 44.4445C31.1112 42.4374 31.1831 40.4743 31.3209 38.5777C28.5854 39.0022 26.1335 39.579 24.0688 40.2673C21.7854 41.0284 20.0978 41.8858 19.0267 42.7299C17.9306 43.5937 17.7778 44.1899 17.7778 44.4445C17.7778 44.6991 17.9306 45.2952 19.0267 46.1591C20.0978 47.0032 21.7854 47.8606 24.0688 48.6217ZM35.5556 44.4445C35.5556 46.6625 35.6483 48.8071 35.8211 50.8457C37.8597 51.0184 40.0042 51.1112 42.2223 51.1112C44.4403 51.1112 46.5848 51.0184 48.6235 50.8457C48.7962 48.8071 48.8889 46.6625 48.8889 44.4445C48.8889 42.2264 48.7962 40.0819 48.6235 38.0433C46.5848 37.8706 44.4403 37.7778 42.2223 37.7778C40.0042 37.7778 37.8597 37.8706 35.8211 38.0433C35.6483 40.0819 35.5556 42.2264 35.5556 44.4445ZM38.0451 62.5979C37.3568 60.5332 36.78 58.0814 36.3555 55.3458C38.2521 55.4836 40.2151 55.5556 42.2223 55.5556C44.2294 55.5556 46.1925 55.4836 48.089 55.3458C47.6645 58.0814 47.0877 60.5332 46.3995 62.5979C45.6383 64.8814 44.781 66.569 43.9369 67.6401C43.073 68.7362 42.4768 68.8889 42.2223 68.8889C41.9677 68.8889 41.3715 68.7362 40.5077 67.6401C39.6636 66.569 38.8062 64.8814 38.0451 62.5979ZM50.6158 64.0034C51.4896 61.3821 52.1823 58.2848 52.6496 54.8718C56.0626 54.4045 59.1599 53.7118 61.7812 52.8381C63.213 52.3608 64.5418 51.8167 65.7203 51.2033C63.4044 59.2696 57.0474 65.6266 48.9811 67.9425C49.5945 66.7641 50.1386 65.4352 50.6158 64.0034ZM60.3757 40.2673C58.311 39.579 55.8592 39.0022 53.1236 38.5777C53.2614 40.4743 53.3334 42.4374 53.3334 44.4445C53.3334 46.4516 53.2614 48.4147 53.1236 50.3113C55.8592 49.8867 58.311 49.3099 60.3757 48.6217C62.6592 47.8606 64.3468 47.0032 65.4178 46.1591C66.514 45.2952 66.6667 44.6991 66.6667 44.4445C66.6667 44.1899 66.514 43.5937 65.4178 42.7299C64.3468 41.8858 62.6592 41.0284 60.3757 40.2673Z" fill="#FFA800"/>
<path fill-rule="evenodd" clip-rule="evenodd" d="M37.9596 26.5513C36.4018 26.4659 34.8863 26.3341 33.4295 26.1589C32.7423 28.4904 32.1886 31.1417 31.7949 34.0172C28.382 34.4845 25.2847 35.1771 22.6634 36.0509C21.2315 36.5282 19.9027 37.0723 18.7242 37.6857C20.1796 32.6167 23.2307 28.2228 27.2991 25.0825C26.5811 24.9099 25.891 24.7244 25.2317 24.5267C24.2342 24.2274 23.2573 23.8853 22.3325 23.493C16.7895 28.7567 13.3334 36.197 13.3334 44.4445C13.3334 60.3994 26.2674 73.3334 42.2223 73.3334C58.1772 73.3334 71.1112 60.3994 71.1112 44.4445C71.1112 36.197 67.655 28.7567 62.1121 23.493C61.1873 23.8853 60.2104 24.2274 59.2129 24.5267C58.5536 24.7244 57.8634 24.9099 57.1454 25.0825C61.2138 28.2228 64.265 32.6167 65.7203 37.6857C64.5418 37.0723 63.213 36.5282 61.7812 36.0509C59.1599 35.1771 56.0626 34.4845 52.6496 34.0172C52.2559 31.1417 51.7022 28.4904 51.015 26.1589C49.5582 26.3341 48.0427 26.4659 46.4849 26.5513C47.1355 28.5607 47.6822 30.9216 48.089 33.5432C46.1925 33.4054 44.2294 33.3334 42.2223 33.3334C40.2151 33.3334 38.2521 33.4054 36.3555 33.5432C36.7623 30.9216 37.309 28.5607 37.9596 26.5513ZM22.6634 52.8381C21.2316 52.3608 19.9027 51.8167 18.7242 51.2033C21.0401 59.2696 27.3971 65.6266 35.4634 67.9425C34.85 66.7641 34.306 65.4352 33.8287 64.0034C32.9549 61.3821 32.2622 58.2848 31.7949 54.8718C28.382 54.4045 25.2847 53.7118 22.6634 52.8381ZM24.0688 48.6217C26.1335 49.3099 28.5854 49.8867 31.3209 50.3113C31.1831 48.4147 31.1112 46.4516 31.1112 44.4445C31.1112 42.4374 31.1831 40.4743 31.3209 38.5777C28.5854 39.0022 26.1335 39.579 24.0688 40.2673C21.7854 41.0284 20.0978 41.8858 19.0267 42.7299C17.9306 43.5937 17.7778 44.1899 17.7778 44.4445C17.7778 44.6991 17.9306 45.2952 19.0267 46.1591C20.0978 47.0032 21.7854 47.8606 24.0688 48.6217ZM35.5556 44.4445C35.5556 46.6625 35.6483 48.8071 35.8211 50.8457C37.8597 51.0184 40.0042 51.1112 42.2223 51.1112C44.4403 51.1112 46.5848 51.0184 48.6235 50.8457C48.7962 48.8071 48.8889 46.6625 48.8889 44.4445C48.8889 42.2264 48.7962 40.0819 48.6235 38.0433C46.5848 37.8706 44.4403 37.7778 42.2223 37.7778C40.0042 37.7778 37.8597 37.8706 35.8211 38.0433C35.6483 40.0819 35.5556 42.2264 35.5556 44.4445ZM38.0451 62.5979C37.3568 60.5332 36.78 58.0814 36.3555 55.3458C38.2521 55.4836 40.2151 55.5556 42.2223 55.5556C44.2294 55.5556 46.1925 55.4836 48.089 55.3458C47.6645 58.0814 47.0877 60.5332 46.3995 62.5979C45.6383 64.8814 44.781 66.569 43.9369 67.6401C43.073 68.7362 42.4768 68.8889 42.2223 68.8889C41.9677 68.8889 41.3715 68.7362 40.5077 67.6401C39.6636 66.569 38.8062 64.8814 38.0451 62.5979ZM50.6158 64.0034C51.4896 61.3821 52.1823 58.2848 52.6496 54.8718C56.0626 54.4045 59.1599 53.7118 61.7812 52.8381C63.213 52.3608 64.5418 51.8167 65.7203 51.2033C63.4044 59.2696 57.0474 65.6266 48.9811 67.9425C49.5945 66.7641 50.1386 65.4352 50.6158 64.0034ZM60.3757 40.2673C58.311 39.579 55.8592 39.0022 53.1236 38.5777C53.2614 40.4743 53.3334 42.4374 53.3334 44.4445C53.3334 46.4516 53.2614 48.4147 53.1236 50.3113C55.8592 49.8867 58.311 49.3099 60.3757 48.6217C62.6592 47.8606 64.3468 47.0032 65.4178 46.1591C66.514 45.2952 66.6667 44.6991 66.6667 44.4445C66.6667 44.1899 66.514 43.5937 65.4178 42.7299C64.3468 41.8858 62.6592 41.0284 60.3757 40.2673Z" fill="white"/>
<path d="M109.85 60.5L100.55 33.45H106.55L113.65 55H111.55L118.8 33.45H123.95L131.15 55H129.05L136.2 33.45H142.2L132.85 60.5H127.75L120.45 38.45H122.3L115 60.5H109.85ZM158.285 61.1C155.585 61.1 153.185 60.4833 151.085 59.25C149.018 57.9833 147.402 56.2833 146.235 54.15C145.068 51.9833 144.485 49.5667 144.485 46.9C144.485 44.1667 145.068 41.75 146.235 39.65C147.435 37.55 149.035 35.9 151.035 34.7C153.035 33.4667 155.302 32.85 157.835 32.85C159.868 32.85 161.685 33.2 163.285 33.9C164.885 34.6 166.235 35.5667 167.335 36.8C168.435 38 169.268 39.3833 169.835 40.95C170.435 42.5167 170.735 44.1833 170.735 45.95C170.735 46.3833 170.718 46.8333 170.685 47.3C170.652 47.7667 170.585 48.2 170.485 48.6H148.935V44.1H167.285L164.585 46.15C164.918 44.5167 164.802 43.0667 164.235 41.8C163.702 40.5 162.868 39.4833 161.735 38.75C160.635 37.9833 159.335 37.6 157.835 37.6C156.335 37.6 155.002 37.9833 153.835 38.75C152.668 39.4833 151.768 40.55 151.135 41.95C150.502 43.3167 150.252 44.9833 150.385 46.95C150.218 48.7833 150.468 50.3833 151.135 51.75C151.835 53.1167 152.802 54.1833 154.035 54.95C155.302 55.7167 156.735 56.1 158.335 56.1C159.968 56.1 161.352 55.7333 162.485 55C163.652 54.2667 164.568 53.3167 165.235 52.15L169.835 54.4C169.302 55.6667 168.468 56.8167 167.335 57.85C166.235 58.85 164.902 59.65 163.335 60.25C161.802 60.8167 160.118 61.1 158.285 61.1ZM190.699 61.1C188.599 61.1 186.683 60.6667 184.949 59.8C183.249 58.9333 181.933 57.6833 180.999 56.05L181.649 55V60.5H176.249V22.65H181.899V39.05L180.999 37.75C181.999 36.2167 183.333 35.0167 184.999 34.15C186.666 33.2833 188.566 32.85 190.699 32.85C193.266 32.85 195.566 33.4667 197.599 34.7C199.666 35.9333 201.283 37.6167 202.449 39.75C203.649 41.8833 204.249 44.2833 204.249 46.95C204.249 49.6167 203.649 52.0167 202.449 54.15C201.283 56.2833 199.683 57.9833 197.649 59.25C195.616 60.4833 193.299 61.1 190.699 61.1ZM190.149 55.85C191.749 55.85 193.166 55.4667 194.399 54.7C195.633 53.9333 196.599 52.8833 197.299 51.55C198.033 50.1833 198.399 48.65 198.399 46.95C198.399 45.25 198.033 43.7333 197.299 42.4C196.599 41.0667 195.633 40.0167 194.399 39.25C193.166 38.4833 191.749 38.1 190.149 38.1C188.583 38.1 187.166 38.4833 185.899 39.25C184.666 40.0167 183.683 41.0667 182.949 42.4C182.249 43.7333 181.899 45.25 181.899 46.95C181.899 48.65 182.249 50.1833 182.949 51.55C183.683 52.8833 184.666 53.9333 185.899 54.7C187.166 55.4667 188.583 55.85 190.149 55.85Z" fill="#FFA800"/>
<path d="M109.85 60.5L100.55 33.45H106.55L113.65 55H111.55L118.8 33.45H123.95L131.15 55H129.05L136.2 33.45H142.2L132.85 60.5H127.75L120.45 38.45H122.3L115 60.5H109.85ZM158.285 61.1C155.585 61.1 153.185 60.4833 151.085 59.25C149.018 57.9833 147.402 56.2833 146.235 54.15C145.068 51.9833 144.485 49.5667 144.485 46.9C144.485 44.1667 145.068 41.75 146.235 39.65C147.435 37.55 149.035 35.9 151.035 34.7C153.035 33.4667 155.302 32.85 157.835 32.85C159.868 32.85 161.685 33.2 163.285 33.9C164.885 34.6 166.235 35.5667 167.335 36.8C168.435 38 169.268 39.3833 169.835 40.95C170.435 42.5167 170.735 44.1833 170.735 45.95C170.735 46.3833 170.718 46.8333 170.685 47.3C170.652 47.7667 170.585 48.2 170.485 48.6H148.935V44.1H167.285L164.585 46.15C164.918 44.5167 164.802 43.0667 164.235 41.8C163.702 40.5 162.868 39.4833 161.735 38.75C160.635 37.9833 159.335 37.6 157.835 37.6C156.335 37.6 155.002 37.9833 153.835 38.75C152.668 39.4833 151.768 40.55 151.135 41.95C150.502 43.3167 150.252 44.9833 150.385 46.95C150.218 48.7833 150.468 50.3833 151.135 51.75C151.835 53.1167 152.802 54.1833 154.035 54.95C155.302 55.7167 156.735 56.1 158.335 56.1C159.968 56.1 161.352 55.7333 162.485 55C163.652 54.2667 164.568 53.3167 165.235 52.15L169.835 54.4C169.302 55.6667 168.468 56.8167 167.335 57.85C166.235 58.85 164.902 59.65 163.335 60.25C161.802 60.8167 160.118 61.1 158.285 61.1ZM190.699 61.1C188.599 61.1 186.683 60.6667 184.949 59.8C183.249 58.9333 181.933 57.6833 180.999 56.05L181.649 55V60.5H176.249V22.65H181.899V39.05L180.999 37.75C181.999 36.2167 183.333 35.0167 184.999 34.15C186.666 33.2833 188.566 32.85 190.699 32.85C193.266 32.85 195.566 33.4667 197.599 34.7C199.666 35.9333 201.283 37.6167 202.449 39.75C203.649 41.8833 204.249 44.2833 204.249 46.95C204.249 49.6167 203.649 52.0167 202.449 54.15C201.283 56.2833 199.683 57.9833 197.649 59.25C195.616 60.4833 193.299 61.1 190.699 61.1ZM190.149 55.85C191.749 55.85 193.166 55.4667 194.399 54.7C195.633 53.9333 196.599 52.8833 197.299 51.55C198.033 50.1833 198.399 48.65 198.399 46.95C198.399 45.25 198.033 43.7333 197.299 42.4C196.599 41.0667 195.633 40.0167 194.399 39.25C193.166 38.4833 191.749 38.1 190.149 38.1C188.583 38.1 187.166 38.4833 185.899 39.25C184.666 40.0167 183.683 41.0667 182.949 42.4C182.249 43.7333 181.899 45.25 181.899 46.95C181.899 48.65 182.249 50.1833 182.949 51.55C183.683 52.8833 184.666 53.9333 185.899 54.7C187.166 55.4667 188.583 55.85 190.149 55.85Z" fill="white"/>
<path d="M222.245 61.1C219.645 61.1 217.312 60.4833 215.245 59.25C213.212 57.9833 211.595 56.2833 210.395 54.15C209.229 52.0167 208.645 49.6167 208.645 46.95C208.645 44.2833 209.245 41.8833 210.445 39.75C211.645 37.6167 213.262 35.9333 215.295 34.7C217.329 33.4667 219.629 32.85 222.195 32.85C224.362 32.85 226.279 33.2833 227.945 34.15C229.612 35.0167 230.929 36.2167 231.895 37.75L231.045 39.05V22.65H236.645V60.5H231.295V55L231.945 56.05C231.012 57.6833 229.679 58.9333 227.945 59.8C226.212 60.6667 224.312 61.1 222.245 61.1ZM222.795 55.85C224.362 55.85 225.762 55.4667 226.995 54.7C228.262 53.9333 229.245 52.8833 229.945 51.55C230.679 50.1833 231.045 48.65 231.045 46.95C231.045 45.25 230.679 43.7333 229.945 42.4C229.245 41.0667 228.262 40.0167 226.995 39.25C225.762 38.4833 224.362 38.1 222.795 38.1C221.229 38.1 219.812 38.4833 218.545 39.25C217.279 40.0167 216.295 41.0667 215.595 42.4C214.895 43.7333 214.545 45.25 214.545 46.95C214.545 48.65 214.895 50.1833 215.595 51.55C216.295 52.8833 217.262 53.9333 218.495 54.7C219.762 55.4667 221.195 55.85 222.795 55.85ZM255.941 61.1C253.241 61.1 250.841 60.4833 248.741 59.25C246.675 57.9833 245.058 56.2833 243.891 54.15C242.725 51.9833 242.141 49.5667 242.141 46.9C242.141 44.1667 242.725 41.75 243.891 39.65C245.091 37.55 246.691 35.9 248.691 34.7C250.691 33.4667 252.958 32.85 255.491 32.85C257.525 32.85 259.341 33.2 260.941 33.9C262.541 34.6 263.891 35.5667 264.991 36.8C266.091 38 266.925 39.3833 267.491 40.95C268.091 42.5167 268.391 44.1833 268.391 45.95C268.391 46.3833 268.375 46.8333 268.341 47.3C268.308 47.7667 268.241 48.2 268.141 48.6H246.591V44.1H264.941L262.241 46.15C262.575 44.5167 262.458 43.0667 261.891 41.8C261.358 40.5 260.525 39.4833 259.391 38.75C258.291 37.9833 256.991 37.6 255.491 37.6C253.991 37.6 252.658 37.9833 251.491 38.75C250.325 39.4833 249.425 40.55 248.791 41.95C248.158 43.3167 247.908 44.9833 248.041 46.95C247.875 48.7833 248.125 50.3833 248.791 51.75C249.491 53.1167 250.458 54.1833 251.691 54.95C252.958 55.7167 254.391 56.1 255.991 56.1C257.625 56.1 259.008 55.7333 260.141 55C261.308 54.2667 262.225 53.3167 262.891 52.15L267.491 54.4C266.958 55.6667 266.125 56.8167 264.991 57.85C263.891 58.85 262.558 59.65 260.991 60.25C259.458 60.8167 257.775 61.1 255.941 61.1ZM281.267 60.5L270.667 33.45H276.817L284.967 55.5H282.717L290.867 33.45H297.067L286.417 60.5H281.267ZM300.907 60.5V33.45H306.557V60.5H300.907ZM300.907 29.75V23.25H306.557V29.75H300.907ZM313.163 60.5V33.45H318.563V38.75L317.913 38.05C318.58 36.35 319.647 35.0667 321.113 34.2C322.58 33.3 324.28 32.85 326.213 32.85C328.213 32.85 329.98 33.2833 331.513 34.15C333.047 35.0167 334.247 36.2167 335.113 37.75C335.98 39.2833 336.413 41.05 336.413 43.05V60.5H330.813V44.55C330.813 43.1833 330.563 42.0333 330.063 41.1C329.563 40.1333 328.847 39.4 327.913 38.9C327.013 38.3667 325.98 38.1 324.813 38.1C323.647 38.1 322.597 38.3667 321.663 38.9C320.763 39.4 320.063 40.1333 319.563 41.1C319.063 42.0667 318.813 43.2167 318.813 44.55V60.5H313.163ZM355.16 61.1C352.46 61.1 350.06 60.4833 347.96 59.25C345.893 57.9833 344.277 56.2833 343.11 54.15C341.943 51.9833 341.36 49.5667 341.36 46.9C341.36 44.1667 341.943 41.75 343.11 39.65C344.31 37.55 345.91 35.9 347.91 34.7C349.91 33.4667 352.177 32.85 354.71 32.85C356.743 32.85 358.56 33.2 360.16 33.9C361.76 34.6 363.11 35.5667 364.21 36.8C365.31 38 366.143 39.3833 366.71 40.95C367.31 42.5167 367.61 44.1833 367.61 45.95C367.61 46.3833 367.593 46.8333 367.56 47.3C367.527 47.7667 367.46 48.2 367.36 48.6H345.81V44.1H364.16L361.46 46.15C361.793 44.5167 361.677 43.0667 361.11 41.8C360.577 40.5 359.743 39.4833 358.61 38.75C357.51 37.9833 356.21 37.6 354.71 37.6C353.21 37.6 351.877 37.9833 350.71 38.75C349.543 39.4833 348.643 40.55 348.01 41.95C347.377 43.3167 347.127 44.9833 347.26 46.95C347.093 48.7833 347.343 50.3833 348.01 51.75C348.71 53.1167 349.677 54.1833 350.91 54.95C352.177 55.7167 353.61 56.1 355.21 56.1C356.843 56.1 358.227 55.7333 359.36 55C360.527 54.2667 361.443 53.3167 362.11 52.15L366.71 54.4C366.177 55.6667 365.343 56.8167 364.21 57.85C363.11 58.85 361.777 59.65 360.21 60.25C358.677 60.8167 356.993 61.1 355.16 61.1Z" fill="#FFA800"/>
<defs>
<filter id="filter0_d_8_29" x="16.7778" y="5.66669" width="50.8889" height="19.7778" filterUnits="userSpaceOnUse" color-interpolation-filters="sRGB">
<feFlood flood-opacity="0" result="BackgroundImageFix"/>
<feColorMatrix in="SourceAlpha" type="matrix" values="0 0 0 0 0 0 0 0 0 0 0 0 0 0 0 0 0 0 127 0" result="hardAlpha"/>
<feOffset/>
<feGaussianBlur stdDeviation="0.5"/>
<feComposite in2="hardAlpha" operator="out"/>
<feColorMatrix type="matrix" values="0 0 0 0 1 0 0 0 0 0.84 0 0 0 0 0 0 0 0 0.7 0"/>
<feBlend mode="normal" in2="BackgroundImageFix" result="effect1_dropShadow_8_29"/>
<feBlend mode="normal" in="SourceGraphic" in2="effect1_dropShadow_8_29" result="shape"/>
</filter>
</defs>
</svg>
